<svg width="207" height="57" viewBox="0 0 207 57" fill="none" xmlns="http://www.w3.org/2000/svg">
<path d="M80.4434 20.2069L80.3988 20.4078C80.3542 20.5417 80.3095 20.6905 80.2649 20.8542C80.2351 21.003 80.2054 21.1443 80.1756 21.2782L80.1087 21.4568C79.8706 21.3377 79.6177 21.241 79.3499 21.1666C79.0969 21.0774 78.8291 21.0327 78.5464 21.0327C77.981 21.0327 77.557 21.2261 77.2743 21.613C76.9916 21.985 76.8502 22.5875 76.8502 23.4207V25.1169H80.064L79.9971 26.3444H76.8502V35.2939H75.4888V26.389L73.8373 26.2775L73.9266 25.4071L75.4665 25.05L75.4888 23.4431C75.5037 22.7735 75.5855 22.2081 75.7343 21.7469C75.898 21.2708 76.1137 20.8914 76.3816 20.6087C76.6494 20.3111 76.9693 20.0954 77.3412 19.9615C77.7132 19.8275 78.1224 19.7606 78.5687 19.7606C78.9109 19.7606 79.2457 19.8052 79.573 19.8945C79.9152 19.9838 80.2054 20.0879 80.4434 20.2069ZM83.4531 35.2939H82.0693V25.0723L83.4531 24.7821V26.9693C83.7953 26.2998 84.2119 25.7716 84.7029 25.3847C85.2087 24.983 85.7965 24.7821 86.466 24.7821C86.8082 24.7821 87.1281 24.8268 87.4257 24.9161C87.7381 25.0053 88.0134 25.1169 88.2514 25.2508L87.8943 26.5453C87.6712 26.4114 87.4257 26.3072 87.1579 26.2328C86.9049 26.1435 86.6297 26.0989 86.3321 26.0989C85.7965 26.0989 85.2831 26.3072 84.7921 26.7238C84.3011 27.1404 83.8548 27.81 83.4531 28.7324V35.2939ZM91.8992 21.7023C91.8992 21.9701 91.8174 22.2081 91.6537 22.4164C91.5049 22.6247 91.2743 22.7289 90.9619 22.7289C90.6494 22.7289 90.4113 22.6247 90.2477 22.4164C90.0989 22.2081 90.0245 21.9701 90.0245 21.7023C90.0245 21.4493 90.0989 21.2261 90.2477 21.0327C90.4113 20.8244 90.6494 20.7203 90.9619 20.7203C91.2743 20.7203 91.5049 20.8244 91.6537 21.0327C91.8174 21.2261 91.8992 21.4493 91.8992 21.7023ZM90.27 35.2939V25.0723L91.6537 24.7821V35.2939H90.27ZM95.8715 30.3393C95.8864 30.9196 95.9756 31.4552 96.1393 31.9462C96.3178 32.4224 96.5633 32.839 96.8758 33.196C97.1882 33.5383 97.5602 33.8061 97.9917 33.9995C98.4232 34.1929 98.9067 34.2896 99.4424 34.2896C100.008 34.2896 100.543 34.2152 101.049 34.0665C101.57 33.9028 102.024 33.6945 102.411 33.4415L102.678 34.7137C102.247 34.9815 101.749 35.1898 101.183 35.3386C100.633 35.5022 100.038 35.5841 99.3977 35.5841C98.6538 35.5841 97.9768 35.4576 97.3668 35.2047C96.7716 34.9369 96.2583 34.5723 95.8268 34.1111C95.3954 33.635 95.0606 33.0696 94.8225 32.4149C94.5845 31.7603 94.4654 31.0461 94.4654 30.2724C94.4654 29.4689 94.5845 28.7324 94.8225 28.0629C95.0755 27.3934 95.4102 26.8131 95.8268 26.3221C96.2583 25.8311 96.7642 25.4517 97.3445 25.1839C97.9396 24.9161 98.5868 24.7821 99.2861 24.7821C100.417 24.7821 101.317 25.1244 101.987 25.8088C102.671 26.4783 103.013 27.3934 103.013 28.5539C103.013 28.8217 102.991 29.1044 102.946 29.402C102.917 29.6996 102.864 29.9599 102.79 30.1831L95.8715 30.2278V30.3393ZM101.63 29.1118C101.644 29.0523 101.652 28.9779 101.652 28.8887V28.6655C101.652 27.8769 101.444 27.2446 101.027 26.7685C100.61 26.2775 100 26.032 99.1969 26.032C98.7356 26.032 98.319 26.1138 97.9471 26.2775C97.5751 26.4411 97.2478 26.6643 96.9651 26.947C96.6972 27.2297 96.4741 27.5645 96.2955 27.9513C96.1319 28.3233 96.0203 28.7176 95.9607 29.1342L101.63 29.1118ZM112.582 35.2939V28.6878C112.582 27.7951 112.396 27.1404 112.024 26.7238C111.667 26.3072 111.101 26.0989 110.327 26.0989C109.762 26.0989 109.212 26.2328 108.676 26.5006C108.14 26.7685 107.657 27.1181 107.225 27.5496V35.2939H105.842V25.0723L107.225 24.7821V26.456C107.761 25.9204 108.341 25.5112 108.966 25.2285C109.591 24.9309 110.171 24.7821 110.707 24.7821C111.733 24.7821 112.53 25.0872 113.095 25.6972C113.675 26.3072 113.965 27.1702 113.965 28.2861V35.2939H112.582ZM124.207 20.2516L125.59 19.9615V35.2939H124.207V34.3343C123.864 34.6467 123.44 34.9369 122.935 35.2047C122.444 35.4576 121.878 35.5841 121.238 35.5841C120.554 35.5841 119.929 35.4576 119.364 35.2047C118.798 34.9369 118.315 34.5723 117.913 34.1111C117.511 33.635 117.199 33.0696 116.976 32.4149C116.767 31.7603 116.663 31.0461 116.663 30.2724C116.663 29.4838 116.79 28.7622 117.043 28.1075C117.296 27.438 117.645 26.8652 118.092 26.389C118.538 25.8981 119.066 25.5186 119.676 25.2508C120.301 24.983 120.985 24.8491 121.729 24.8491C122.161 24.8491 122.592 24.9012 123.024 25.0053C123.47 25.1095 123.864 25.2434 124.207 25.4071V20.2516ZM124.207 26.88C123.894 26.6271 123.515 26.4337 123.068 26.2998C122.622 26.1659 122.153 26.0989 121.662 26.0989C121.112 26.0989 120.613 26.2031 120.167 26.4114C119.736 26.6197 119.364 26.9098 119.051 27.2818C118.739 27.6389 118.501 28.0778 118.337 28.5985C118.173 29.1044 118.092 29.6549 118.092 30.2501C118.092 30.8452 118.166 31.3957 118.315 31.9016C118.478 32.3926 118.709 32.8166 119.007 33.1737C119.304 33.5308 119.661 33.8135 120.078 34.0218C120.494 34.2152 120.963 34.312 121.484 34.312C122.005 34.312 122.496 34.2078 122.957 33.9995C123.433 33.7912 123.85 33.5159 124.207 33.1737V26.88ZM134.89 31.299C135.068 31.6263 135.158 32.0281 135.158 32.5042C135.158 32.9803 135.061 33.4118 134.867 33.7986C134.689 34.1706 134.428 34.4905 134.086 34.7583C133.759 35.0261 133.372 35.227 132.926 35.3609C132.479 35.5097 132.003 35.5841 131.497 35.5841C130.887 35.5841 130.285 35.5022 129.69 35.3386C129.094 35.1749 128.581 34.9517 128.15 34.669L128.529 33.3969C128.961 33.6945 129.437 33.9251 129.957 34.0888C130.493 34.2524 131.021 34.3343 131.542 34.3343C131.854 34.3343 132.145 34.2971 132.412 34.2227C132.695 34.1483 132.941 34.0441 133.149 33.9102C133.357 33.7614 133.521 33.5829 133.64 33.3746C133.774 33.1514 133.841 32.8985 133.841 32.6158C133.841 32.3033 133.766 32.043 133.618 31.8346C133.469 31.6263 133.275 31.4552 133.037 31.3213C132.799 31.1725 132.524 31.0461 132.212 30.9419L131.274 30.6295C130.917 30.5253 130.56 30.3989 130.203 30.2501C129.861 30.1013 129.548 29.9153 129.266 29.6921C128.983 29.4689 128.752 29.2011 128.574 28.8887C128.395 28.5613 128.306 28.1745 128.306 27.7281C128.306 27.2669 128.395 26.8577 128.574 26.5006C128.752 26.1287 128.998 25.8162 129.31 25.5633C129.623 25.3103 129.987 25.1169 130.404 24.983C130.835 24.8491 131.289 24.7821 131.765 24.7821C132.331 24.7821 132.881 24.8565 133.417 25.0053C133.952 25.1392 134.436 25.3178 134.867 25.541L134.466 26.7908C134.034 26.5527 133.573 26.3667 133.082 26.2328C132.591 26.0989 132.122 26.032 131.676 26.032C131.051 26.032 130.553 26.1733 130.181 26.456C129.809 26.7238 129.623 27.1032 129.623 27.5942C129.623 27.8918 129.69 28.1373 129.823 28.3307C129.972 28.5241 130.158 28.6952 130.381 28.844C130.62 28.9779 130.887 29.097 131.185 29.2011C131.497 29.3053 131.817 29.4094 132.145 29.5136C132.502 29.6177 132.859 29.7442 133.216 29.893C133.588 30.0418 133.915 30.2352 134.198 30.4732C134.481 30.6964 134.711 30.9717 134.89 31.299ZM154.136 34.7806C153.705 35.0484 153.154 35.2567 152.485 35.4055C151.815 35.5543 151.101 35.6287 150.342 35.6287C149.479 35.6287 148.698 35.5097 147.999 35.2716C147.314 35.0336 146.727 34.6839 146.236 34.2227C145.745 33.7614 145.365 33.196 145.097 32.5265C144.844 31.8421 144.718 31.061 144.718 30.1831C144.718 29.3202 144.852 28.5465 145.12 27.862C145.388 27.1627 145.767 26.575 146.258 26.0989C146.764 25.6079 147.366 25.2359 148.066 24.983C148.765 24.7152 149.554 24.5813 150.431 24.5813C151.16 24.5813 151.852 24.6631 152.507 24.8268C153.162 24.9756 153.727 25.1839 154.203 25.4517L153.534 28.0406C153.117 27.8025 152.671 27.6091 152.195 27.4603C151.718 27.3115 151.25 27.2371 150.788 27.2371C149.955 27.2371 149.316 27.4975 148.869 28.0183C148.438 28.539 148.222 29.2234 148.222 30.0715C148.222 31.0089 148.46 31.7231 148.936 32.2141C149.427 32.7051 150.074 32.9506 150.878 32.9506C151.399 32.9506 151.882 32.8836 152.328 32.7497C152.79 32.6158 153.221 32.4224 153.623 32.1694L154.136 34.7806ZM161.643 30.6741C160.572 30.7931 159.821 30.9717 159.389 31.2097C158.958 31.4329 158.742 31.7751 158.742 32.2364C158.742 32.5786 158.861 32.8538 159.099 33.0621C159.337 33.2556 159.65 33.3523 160.037 33.3523C160.379 33.3523 160.684 33.2928 160.952 33.1737C161.234 33.0398 161.465 32.8687 161.643 32.6604V30.6741ZM161.666 34.0441C161.294 34.4756 160.877 34.8476 160.416 35.16C159.97 35.4725 159.389 35.6287 158.675 35.6287C158.229 35.6287 157.812 35.5543 157.425 35.4055C157.038 35.2567 156.704 35.0559 156.421 34.8029C156.138 34.5351 155.915 34.2301 155.751 33.8879C155.588 33.5308 155.506 33.1514 155.506 32.7497C155.506 32.2587 155.603 31.7975 155.796 31.366C156.004 30.9345 156.347 30.5551 156.823 30.2278C157.299 29.9004 157.931 29.6326 158.72 29.4243C159.508 29.216 160.483 29.097 161.643 29.0672V28.8663C161.643 28.3158 161.495 27.9141 161.197 27.6612C160.914 27.4082 160.453 27.2818 159.813 27.2818C159.278 27.2818 158.705 27.3859 158.095 27.5942C157.5 27.7876 156.897 28.0331 156.287 28.3307L155.573 25.8088C156.123 25.5112 156.808 25.2359 157.626 24.983C158.459 24.7152 159.367 24.5813 160.349 24.5813C161.242 24.5813 161.993 24.6854 162.603 24.8937C163.213 25.0872 163.704 25.3773 164.076 25.7641C164.448 26.151 164.708 26.6271 164.857 27.1925C165.021 27.743 165.095 28.3828 165.08 29.1118L165.058 32.1917C165.058 32.5488 165.11 32.772 165.214 32.8613C165.318 32.9506 165.549 33.0101 165.906 33.0398L165.571 35.4948C164.441 35.6436 163.578 35.5766 162.983 35.2939C162.387 35.0261 161.971 34.6095 161.733 34.0441H161.666ZM175.877 32.2141C175.877 32.6902 175.772 33.1365 175.564 33.5531C175.371 33.9549 175.073 34.312 174.671 34.6244C174.27 34.9369 173.771 35.1824 173.176 35.3609C172.596 35.5394 171.926 35.6287 171.167 35.6287C170.81 35.6287 170.431 35.6064 170.029 35.5618C169.628 35.532 169.233 35.4725 168.846 35.3832C168.46 35.3088 168.08 35.2196 167.708 35.1154C167.351 34.9964 167.039 34.8625 166.771 34.7137L167.44 32.2364C168.05 32.5488 168.683 32.7943 169.337 32.9729C169.992 33.1365 170.624 33.2184 171.234 33.2184C172.172 33.2184 172.64 32.9357 172.64 32.3703C172.64 32.0727 172.492 31.857 172.194 31.7231C171.911 31.5743 171.472 31.4329 170.877 31.299C170.267 31.18 169.717 31.0312 169.226 30.8527C168.75 30.6741 168.341 30.4509 167.998 30.1831C167.656 29.9153 167.388 29.5954 167.195 29.2234C167.016 28.8515 166.927 28.4125 166.927 27.9067C166.927 27.4157 167.031 26.9693 167.24 26.5676C167.448 26.1659 167.745 25.8162 168.132 25.5186C168.519 25.2211 168.995 24.9905 169.561 24.8268C170.141 24.6631 170.788 24.5813 171.502 24.5813C171.844 24.5813 172.209 24.6036 172.596 24.6482C172.983 24.6929 173.362 24.7598 173.734 24.8491C174.121 24.9235 174.485 25.0202 174.828 25.1392C175.17 25.2434 175.467 25.355 175.72 25.474L175.029 27.929C174.433 27.6314 173.808 27.4008 173.154 27.2371C172.514 27.0735 171.949 26.9916 171.458 26.9916C170.61 26.9916 170.185 27.252 170.185 27.7728C170.185 28.0555 170.342 28.2712 170.654 28.42C170.967 28.5539 171.406 28.6804 171.971 28.7994C172.581 28.9333 173.124 29.0895 173.6 29.2681C174.091 29.4466 174.5 29.6698 174.828 29.9376C175.17 30.1906 175.43 30.503 175.609 30.875C175.787 31.2469 175.877 31.6933 175.877 32.2141ZM181.478 21.613C181.478 22.2081 181.299 22.6619 180.942 22.9744C180.585 23.2868 180.086 23.4431 179.447 23.4431C178.822 23.4431 178.323 23.2868 177.951 22.9744C177.594 22.6619 177.416 22.2081 177.416 21.613C177.416 21.003 177.594 20.5417 177.951 20.2293C178.323 19.9168 178.822 19.7606 179.447 19.7606C180.086 19.7606 180.585 19.9168 180.942 20.2293C181.299 20.5417 181.478 21.003 181.478 21.613ZM177.728 35.2939V25.0946L181.165 24.6706V35.2939H177.728ZM190.397 35.2939V29.1565C190.397 28.5316 190.264 28.1001 189.996 27.862C189.743 27.624 189.386 27.5049 188.924 27.5049C188.538 27.5049 188.181 27.5868 187.853 27.7504C187.541 27.8992 187.273 28.0778 187.05 28.2861V35.2939H183.613V25.0946L187.05 24.6706V26.3667C187.511 25.846 188.039 25.4219 188.634 25.0946C189.229 24.7524 189.862 24.5813 190.531 24.5813C191.573 24.5813 192.384 24.9012 192.964 25.541C193.544 26.1659 193.834 27.0363 193.834 28.1522V35.2939H190.397ZM206.811 30.0715C206.811 30.9494 206.662 31.7305 206.364 32.4149C206.067 33.0993 205.665 33.6796 205.159 34.1557C204.653 34.6318 204.058 34.9964 203.374 35.2493C202.689 35.5022 201.96 35.6287 201.187 35.6287C200.398 35.6287 199.669 35.5097 198.999 35.2716C198.33 35.0336 197.75 34.6839 197.259 34.2227C196.768 33.7466 196.381 33.1663 196.098 32.4819C195.815 31.7975 195.674 31.0163 195.674 30.1385C195.674 29.2606 195.815 28.4795 196.098 27.7951C196.396 27.0958 196.797 26.5081 197.303 26.032C197.824 25.5558 198.427 25.1988 199.111 24.9607C199.795 24.7078 200.532 24.5813 201.321 24.5813C202.094 24.5813 202.816 24.7078 203.485 24.9607C204.155 25.1988 204.735 25.5558 205.226 26.032C205.717 26.4932 206.104 27.066 206.387 27.7504C206.669 28.4349 206.811 29.2086 206.811 30.0715ZM203.396 30.0938C203.396 29.216 203.21 28.5167 202.838 27.9959C202.481 27.4603 201.945 27.1925 201.231 27.1925C200.517 27.1925 199.981 27.4603 199.624 27.9959C199.267 28.5167 199.089 29.2234 199.089 30.1162C199.089 31.0089 199.267 31.7156 199.624 32.2364C199.996 32.7422 200.539 32.9952 201.254 32.9952C201.968 32.9952 202.503 32.7348 202.86 32.2141C203.218 31.6933 203.396 30.9866 203.396 30.0938Z" fill="black"/>
<path d="M74.797 46.0833C74.797 46.7603 74.9718 47.2922 75.3214 47.6791C75.6785 48.0585 76.1509 48.2482 76.7386 48.2482C76.9693 48.2482 77.185 48.2222 77.3859 48.1701C77.5942 48.118 77.7727 48.0473 77.9215 47.9581V46.6636H76.5489V46.0387H78.5687V48.3375C78.3083 48.5086 78.0145 48.635 77.6872 48.7169C77.3598 48.7987 77.0399 48.8396 76.7275 48.8396C76.3406 48.8396 75.9873 48.7764 75.6674 48.6499C75.3475 48.5234 75.0722 48.3412 74.8416 48.1031C74.6184 47.8651 74.4436 47.5786 74.3171 47.2439C74.1907 46.9091 74.1274 46.5297 74.1274 46.1057C74.1274 45.6891 74.1907 45.3134 74.3171 44.9786C74.451 44.6364 74.6333 44.3463 74.8639 44.1082C75.0945 43.8627 75.3698 43.6767 75.6897 43.5502C76.0096 43.4163 76.3592 43.3494 76.7386 43.3494C77.0734 43.3494 77.3933 43.3903 77.6983 43.4721C78.0108 43.554 78.2711 43.6581 78.4794 43.7846L78.2674 44.3983C78.0591 44.2644 77.8248 44.1565 77.5644 44.0747C77.304 43.9929 77.0288 43.952 76.7386 43.952C76.4559 43.952 76.1956 44.0003 75.9575 44.097C75.7195 44.1937 75.5149 44.3351 75.3438 44.5211C75.1727 44.6996 75.0387 44.9228 74.942 45.1906C74.8453 45.451 74.797 45.7486 74.797 46.0833ZM86.5235 46.0722C86.5235 46.4739 86.4566 46.8459 86.3227 47.1881C86.1962 47.5229 86.0139 47.813 85.7759 48.0585C85.5453 48.304 85.27 48.4974 84.9501 48.6388C84.6302 48.7727 84.2806 48.8396 83.9012 48.8396C83.5292 48.8396 83.1833 48.7764 82.8634 48.6499C82.5435 48.516 82.2645 48.33 82.0264 48.092C81.7958 47.8539 81.6136 47.5675 81.4797 47.2327C81.3457 46.8979 81.2788 46.5223 81.2788 46.1057C81.2788 45.7039 81.342 45.3357 81.4685 45.0009C81.6024 44.6587 81.7847 44.3686 82.0153 44.1305C82.2533 43.885 82.5323 43.6953 82.8522 43.5614C83.1721 43.4201 83.5218 43.3494 83.9012 43.3494C84.2731 43.3494 84.6191 43.4163 84.939 43.5502C85.2588 43.6767 85.5341 43.859 85.7647 44.097C86.0028 44.3277 86.1888 44.6141 86.3227 44.9563C86.4566 45.291 86.5235 45.663 86.5235 46.0722ZM85.6866 46.9761C85.7833 46.7157 85.8317 46.4255 85.8317 46.1057C85.8317 45.7858 85.7833 45.4919 85.6866 45.2241C85.5899 44.9563 85.456 44.7294 85.2849 44.5434C85.1138 44.35 84.9092 44.2012 84.6711 44.097C84.4331 43.9929 84.169 43.9408 83.8788 43.9408C83.5961 43.9408 83.3358 43.9929 83.0977 44.097C82.8671 44.2012 82.6662 44.3463 82.4951 44.5322C82.3315 44.7182 82.2013 44.9451 82.1046 45.2129C82.0078 45.4733 81.9595 45.7597 81.9595 46.0722C81.9595 46.3995 82.0078 46.6971 82.1046 46.9649C82.2013 47.2327 82.3352 47.4633 82.5063 47.6568C82.6774 47.8427 82.882 47.9878 83.12 48.092C83.3655 48.1961 83.6296 48.2482 83.9123 48.2482C84.195 48.2482 84.4554 48.1961 84.6935 48.092C84.9315 47.9878 85.1324 47.8427 85.296 47.6568C85.4671 47.4633 85.5973 47.2364 85.6866 46.9761ZM94.3505 46.0722C94.3505 46.4739 94.2836 46.8459 94.1497 47.1881C94.0232 47.5229 93.8409 47.813 93.6029 48.0585C93.3723 48.304 93.097 48.4974 92.7771 48.6388C92.4572 48.7727 92.1076 48.8396 91.7282 48.8396C91.3562 48.8396 91.0103 48.7764 90.6904 48.6499C90.3705 48.516 90.0915 48.33 89.8535 48.092C89.6228 47.8539 89.4406 47.5675 89.3067 47.2327C89.1728 46.8979 89.1058 46.5223 89.1058 46.1057C89.1058 45.7039 89.169 45.3357 89.2955 45.0009C89.4294 44.6587 89.6117 44.3686 89.8423 44.1305C90.0804 43.885 90.3593 43.6953 90.6792 43.5614C90.9991 43.4201 91.3488 43.3494 91.7282 43.3494C92.1001 43.3494 92.4461 43.4163 92.766 43.5502C93.0858 43.6767 93.3611 43.859 93.5917 44.097C93.8298 44.3277 94.0158 44.6141 94.1497 44.9563C94.2836 45.291 94.3505 45.663 94.3505 46.0722ZM93.5136 46.9761C93.6103 46.7157 93.6587 46.4255 93.6587 46.1057C93.6587 45.7858 93.6103 45.4919 93.5136 45.2241C93.4169 44.9563 93.283 44.7294 93.1119 44.5434C92.9408 44.35 92.7362 44.2012 92.4981 44.097C92.2601 43.9929 91.996 43.9408 91.7059 43.9408C91.4232 43.9408 91.1628 43.9929 90.9247 44.097C90.6941 44.2012 90.4932 44.3463 90.3221 44.5322C90.1585 44.7182 90.0283 44.9451 89.9316 45.2129C89.8349 45.4733 89.7865 45.7597 89.7865 46.0722C89.7865 46.3995 89.8349 46.6971 89.9316 46.9649C90.0283 47.2327 90.1622 47.4633 90.3333 47.6568C90.5044 47.8427 90.709 47.9878 90.947 48.092C91.1925 48.1961 91.4566 48.2482 91.7393 48.2482C92.022 48.2482 92.2824 48.1961 92.5205 48.092C92.7585 47.9878 92.9594 47.8427 93.123 47.6568C93.2942 47.4633 93.4243 47.2364 93.5136 46.9761ZM101.564 46.061C101.564 46.8868 101.315 47.5377 100.816 48.0139C100.325 48.49 99.6221 48.728 98.7071 48.728H97.2229V43.461H98.7629C99.1944 43.461 99.5849 43.5242 99.9346 43.6507C100.284 43.7697 100.578 43.9445 100.816 44.1751C101.054 44.4058 101.236 44.681 101.363 45.0009C101.497 45.3208 101.564 45.6742 101.564 46.061ZM100.872 46.1057C100.872 45.451 100.682 44.9488 100.303 44.5992C99.9234 44.2495 99.3915 44.0747 98.7071 44.0747H97.9036V48.1143H98.7294C99.0493 48.1143 99.3394 48.0734 99.5998 47.9915C99.8602 47.9097 100.083 47.7869 100.269 47.6233C100.463 47.4522 100.612 47.2402 100.716 46.9872C100.82 46.7343 100.872 46.4404 100.872 46.1057ZM109.502 44.0747V48.728H108.822V44.0747H106.992V43.461H111.333V44.0747H109.502ZM114.013 48.728V43.461H114.694V48.728H114.013ZM122.516 48.728L122.426 44.3425L120.819 48.728H120.094L118.465 44.3314L118.376 48.728H117.706L117.873 43.461H118.811L120.474 47.9804L122.103 43.461H123.029L123.196 48.728H122.516ZM126.202 48.728V43.461H129.493V44.0747H126.871V45.782H129.058V46.3958H126.871V48.1143H129.493V48.728H126.202ZM137.3 48.728H136.63L135.146 43.461H135.849L136.998 47.8018L138.271 43.461H139.063L140.357 47.8018L141.473 43.461H142.154L140.681 48.728H139.989L138.661 44.2644L137.3 48.728ZM144.997 48.728V43.461H145.678V48.728H144.997ZM150.866 44.0747V48.728H150.185V44.0747H148.355V43.461H152.696V44.0747H150.866ZM158.947 48.728V46.3846H156.046V48.728H155.365V43.461H156.046V45.7709H158.947V43.461H159.628V48.728H158.947ZM165.843 43.461H169.057V44.0747H166.513V45.8713H168.622V46.4962H166.513V48.728H165.843V43.461ZM172.52 48.728H171.839V43.461H173.457C174.127 43.461 174.629 43.606 174.964 43.8962C175.299 44.1789 175.466 44.5694 175.466 45.0679C175.466 45.4622 175.366 45.7858 175.165 46.0387C174.971 46.2842 174.718 46.4665 174.406 46.5855L175.745 48.728H174.964L173.736 46.7417L172.52 46.8087V48.728ZM173.457 46.1949C173.889 46.1875 174.216 46.0908 174.439 45.9048C174.67 45.7114 174.785 45.4473 174.785 45.1125C174.785 44.7554 174.674 44.495 174.45 44.3314C174.227 44.1603 173.878 44.0747 173.402 44.0747H172.509V46.2172L173.457 46.1949ZM178.533 48.728V43.461H179.214V48.728H178.533ZM182.382 48.728V43.461H185.674V44.0747H183.052V45.782H185.239V46.3958H183.052V48.1143H185.674V48.728H182.382ZM192.201 43.461H192.848V48.7838H192.112L189.233 44.443L189.244 48.728H188.597V43.461H189.355L192.212 47.7572L192.201 43.461ZM200.339 46.061C200.339 46.8868 200.09 47.5377 199.592 48.0139C199.101 48.49 198.398 48.728 197.483 48.728H195.999V43.461H197.539C197.97 43.461 198.361 43.5242 198.71 43.6507C199.06 43.7697 199.354 43.9445 199.592 44.1751C199.83 44.4058 200.012 44.681 200.139 45.0009C200.272 45.3208 200.339 45.6742 200.339 46.061ZM199.648 46.1057C199.648 45.451 199.458 44.9488 199.078 44.5992C198.699 44.2495 198.167 44.0747 197.483 44.0747H196.679V48.1143H197.505C197.825 48.1143 198.115 48.0734 198.375 47.9915C198.636 47.9097 198.859 47.7869 199.045 47.6233C199.238 47.4522 199.387 47.2402 199.491 46.9872C199.595 46.7343 199.648 46.4404 199.648 46.1057ZM204.61 48.2482C204.96 48.2482 205.239 48.1626 205.447 47.9915C205.663 47.8204 205.771 47.6047 205.771 47.3443C205.771 47.0616 205.663 46.8533 205.447 46.7194C205.232 46.5781 204.915 46.4479 204.499 46.3288C204.313 46.2768 204.127 46.2135 203.941 46.1391C203.755 46.0647 203.588 45.9717 203.439 45.8602C203.29 45.7411 203.167 45.5998 203.071 45.4361C202.981 45.265 202.937 45.0567 202.937 44.8112C202.937 44.3723 203.097 44.0189 203.416 43.7511C203.736 43.4833 204.157 43.3494 204.677 43.3494C204.997 43.3494 205.295 43.3903 205.57 43.4721C205.853 43.5465 206.109 43.6544 206.34 43.7957L206.128 44.3983C205.912 44.257 205.678 44.1491 205.425 44.0747C205.172 43.9929 204.927 43.952 204.689 43.952C204.317 43.952 204.045 44.0338 203.874 44.1975C203.703 44.3611 203.617 44.5508 203.617 44.7666C203.617 45.0418 203.729 45.2427 203.952 45.3692C204.183 45.4956 204.499 45.6184 204.901 45.7374C205.087 45.7969 205.273 45.8639 205.459 45.9383C205.645 46.0127 205.808 46.1094 205.95 46.2284C206.098 46.3474 206.217 46.4925 206.307 46.6636C206.396 46.8347 206.441 47.043 206.441 47.2885C206.441 47.5117 206.396 47.72 206.307 47.9134C206.217 48.0994 206.091 48.2631 205.927 48.4044C205.764 48.5383 205.566 48.6462 205.336 48.728C205.113 48.8024 204.867 48.8396 204.599 48.8396C204.287 48.8396 203.978 48.7987 203.673 48.7169C203.368 48.6276 203.093 48.5086 202.847 48.3598L203.048 47.7572C203.286 47.906 203.528 48.025 203.774 48.1143C204.026 48.2036 204.305 48.2482 204.61 48.2482Z" fill="#2A43AD"/>
<path d="M75.3214 47.6791L75.254 47.7401L75.2552 47.7414L75.3214 47.6791ZM77.3859 48.1701L77.3638 48.0818L77.363 48.082L77.3859 48.1701ZM77.9215 47.9581L77.9683 48.036L78.0124 48.0095V47.9581H77.9215ZM77.9215 46.6636H78.0124V46.5727H77.9215V46.6636ZM76.5489 46.6636H76.458V46.7546H76.5489V46.6636ZM76.5489 46.0387V45.9478H76.458V46.0387H76.5489ZM78.5687 46.0387H78.6597V45.9478H78.5687V46.0387ZM78.5687 48.3375L78.6187 48.4135L78.6597 48.3865V48.3375H78.5687ZM77.6872 48.7169L77.6651 48.6286L77.6872 48.7169ZM75.6674 48.6499L75.6339 48.7345L75.6674 48.6499ZM74.8416 48.1031L74.7752 48.1653L74.7763 48.1664L74.8416 48.1031ZM74.3171 47.2439L74.4022 47.2117H74.4022L74.3171 47.2439ZM74.3171 44.9786L74.2324 44.9455L74.2321 44.9465L74.3171 44.9786ZM74.8639 44.1082L74.9293 44.1715L74.9302 44.1705L74.8639 44.1082ZM75.6897 43.5502L75.7231 43.6348L75.7248 43.6341L75.6897 43.5502ZM77.6983 43.4721L77.6747 43.56L77.6753 43.5601L77.6983 43.4721ZM78.4794 43.7846L78.5654 43.8143L78.5894 43.7449L78.5266 43.7068L78.4794 43.7846ZM78.2674 44.3983L78.2182 44.4748L78.3156 44.5374L78.3534 44.428L78.2674 44.3983ZM77.5644 44.0747L77.5371 44.1615L77.5644 44.0747ZM75.3438 44.5211L75.4094 44.584L75.4107 44.5827L75.3438 44.5211ZM74.942 45.1906L75.0273 45.2223L75.0276 45.2215L74.942 45.1906ZM74.706 46.0833C74.706 46.776 74.8851 47.332 75.254 47.7401L75.3889 47.6181C75.0584 47.2525 74.8879 46.7447 74.8879 46.0833H74.706ZM75.2552 47.7414C75.6318 48.1415 76.1294 48.3391 76.7386 48.3391V48.1572C76.1725 48.1572 75.7253 47.9755 75.3877 47.6167L75.2552 47.7414ZM76.7386 48.3391C76.9761 48.3391 77.1996 48.3123 77.4087 48.2581L77.363 48.082C77.1704 48.132 76.9624 48.1572 76.7386 48.1572V48.3391ZM77.4079 48.2583C77.623 48.2046 77.8102 48.1309 77.9683 48.036L77.8747 47.8801C77.7352 47.9638 77.5654 48.0314 77.3638 48.0818L77.4079 48.2583ZM78.0124 47.9581V46.6636H77.8305V47.9581H78.0124ZM77.9215 46.5727H76.5489V46.7546H77.9215V46.5727ZM76.6399 46.6636V46.0387H76.458V46.6636H76.6399ZM76.5489 46.1297H78.5687V45.9478H76.5489V46.1297ZM78.4778 46.0387V48.3375H78.6597V46.0387H78.4778ZM78.5188 48.2615C78.2676 48.4265 77.9833 48.5491 77.6651 48.6286L77.7092 48.8051C78.0456 48.721 78.3491 48.5906 78.6187 48.4135L78.5188 48.2615ZM77.6651 48.6286C77.3444 48.7088 77.0319 48.7487 76.7275 48.7487V48.9306C77.0479 48.9306 77.3752 48.8886 77.7092 48.8051L77.6651 48.6286ZM76.7275 48.7487C76.3507 48.7487 76.0088 48.6871 75.7008 48.5653L75.6339 48.7345C75.9657 48.8657 76.3306 48.9306 76.7275 48.9306V48.7487ZM75.7008 48.5653C75.3925 48.4434 75.1282 48.2683 74.9069 48.0398L74.7763 48.1664C75.0162 48.4141 75.3025 48.6035 75.6339 48.7345L75.7008 48.5653ZM74.908 48.0409C74.6937 47.8124 74.5249 47.5364 74.4022 47.2117L74.2321 47.276C74.3623 47.6209 74.5432 47.9178 74.7753 48.1653L74.908 48.0409ZM74.4022 47.2117C74.2803 46.8889 74.2184 46.5207 74.2184 46.1057H74.0365C74.0365 46.5387 74.1011 46.9293 74.2321 47.276L74.4022 47.2117ZM74.2184 46.1057C74.2184 45.6983 74.2802 45.3337 74.4022 45.0107L74.2321 44.9465C74.1011 45.293 74.0365 45.6798 74.0365 46.1057H74.2184ZM74.4018 45.0117C74.5318 44.6795 74.7079 44.4 74.9292 44.1715L74.7986 44.0449C74.5587 44.2925 74.3703 44.5932 74.2324 44.9455L74.4018 45.0117ZM74.9302 44.1705C75.1515 43.9349 75.4154 43.7565 75.7231 43.6348L75.6563 43.4657C75.3242 43.5969 75.0376 43.7904 74.7976 44.0459L74.9302 44.1705ZM75.7248 43.6341C76.0326 43.5053 76.3702 43.4403 76.7386 43.4403V43.2584C76.3483 43.2584 75.9866 43.3274 75.6546 43.4663L75.7248 43.6341ZM76.7386 43.4403C77.0659 43.4403 77.3779 43.4803 77.6747 43.56L77.7219 43.3843C77.4087 43.3003 77.0809 43.2584 76.7386 43.2584V43.4403ZM77.6753 43.5601C77.9818 43.6404 78.2334 43.7416 78.4322 43.8623L78.5266 43.7068C78.3088 43.5746 78.0397 43.4675 77.7214 43.3841L77.6753 43.5601ZM78.3935 43.7549L78.1815 44.3686L78.3534 44.428L78.5654 43.8143L78.3935 43.7549ZM78.3166 44.3218C78.1008 44.1831 77.859 44.072 77.5917 43.988L77.5371 44.1615C77.7906 44.2411 78.0174 44.3457 78.2182 44.4748L78.3166 44.3218ZM77.5917 43.988C77.3219 43.9032 77.0374 43.861 76.7386 43.861V44.0429C77.0201 44.0429 77.2861 44.0826 77.5371 44.1615L77.5917 43.988ZM76.7386 43.861C76.4454 43.861 76.1733 43.9112 75.9233 44.0128L75.9917 44.1813C76.2179 44.0894 76.4665 44.0429 76.7386 44.0429V43.861ZM75.9233 44.0128C75.673 44.1145 75.4572 44.2635 75.2768 44.4595L75.4107 44.5827C75.5726 44.4067 75.7659 44.273 75.9917 44.1813L75.9233 44.0128ZM75.2781 44.4581C75.097 44.6472 74.9569 44.8818 74.8565 45.1597L75.0276 45.2215C75.1206 44.9638 75.2483 44.7521 75.4094 44.584L75.2781 44.4581ZM74.8568 45.159C74.7556 45.4313 74.706 45.7399 74.706 46.0833H74.8879C74.8879 45.7572 74.935 45.4707 75.0273 45.2223L74.8568 45.159ZM86.3227 47.1881L86.238 47.1549L86.2376 47.1559L86.3227 47.1881ZM85.7759 48.0585L85.7106 47.9952L85.7096 47.9962L85.7759 48.0585ZM84.9501 48.6388L84.9852 48.7227L84.9869 48.7219L84.9501 48.6388ZM82.8634 48.6499L82.8282 48.7338L82.8299 48.7345L82.8634 48.6499ZM82.0264 48.092L81.9611 48.1553L81.9621 48.1563L82.0264 48.092ZM81.4797 47.2327L81.3952 47.2665L81.4797 47.2327ZM81.4685 45.0009L81.3838 44.9678L81.3834 44.9688L81.4685 45.0009ZM82.0153 44.1305L81.95 44.0672L81.95 44.0672L82.0153 44.1305ZM82.8522 43.5614L82.8873 43.6453L82.889 43.6446L82.8522 43.5614ZM84.939 43.5502L84.9038 43.6342L84.9055 43.6348L84.939 43.5502ZM85.7647 44.097L85.6994 44.1603L85.7014 44.1624L85.7647 44.097ZM86.3227 44.9563L86.238 44.9894L86.2382 44.9901L86.3227 44.9563ZM85.6866 46.9761L85.6013 46.9444L85.6006 46.9466L85.6866 46.9761ZM85.6866 45.2241L85.6011 45.255L85.6866 45.2241ZM85.2849 44.5434L85.2167 44.6037L85.2179 44.605L85.2849 44.5434ZM84.6711 44.097L84.7076 44.0137L84.6711 44.097ZM83.0977 44.097L83.0613 44.0137L83.0603 44.0141L83.0977 44.097ZM82.4951 44.5322L82.4282 44.4706L82.4268 44.4722L82.4951 44.5322ZM82.1046 45.2129L82.1898 45.2446L82.1901 45.2438L82.1046 45.2129ZM82.1046 46.9649L82.1901 46.934L82.1046 46.9649ZM82.5063 47.6568L82.4382 47.717L82.4394 47.7183L82.5063 47.6568ZM83.12 48.092L83.0836 48.1753L83.0845 48.1757L83.12 48.092ZM84.6935 48.092L84.657 48.0086L84.6935 48.092ZM85.296 47.6568L85.2279 47.5965L85.2278 47.5967L85.296 47.6568ZM86.4326 46.0722C86.4326 46.4636 86.3674 46.8242 86.238 47.1549L86.4074 47.2212C86.5458 46.8675 86.6145 46.4842 86.6145 46.0722H86.4326ZM86.2376 47.1559C86.1153 47.4796 85.9396 47.759 85.7106 47.9952L85.8412 48.1218C86.0883 47.867 86.2771 47.5661 86.4077 47.2202L86.2376 47.1559ZM85.7096 47.9962C85.4876 48.2325 85.2225 48.419 84.9134 48.5556L84.9869 48.7219C85.3175 48.5759 85.6029 48.3755 85.8422 48.1208L85.7096 47.9962ZM84.915 48.5549C84.6072 48.6837 84.2697 48.7487 83.9012 48.7487V48.9306C84.2915 48.9306 84.6532 48.8616 84.9852 48.7227L84.915 48.5549ZM83.9012 48.7487C83.5397 48.7487 83.2052 48.6873 82.8968 48.5653L82.8299 48.7345C83.1613 48.8655 83.5187 48.9306 83.9012 48.9306V48.7487ZM82.8985 48.566C82.5892 48.4365 82.3202 48.2571 82.0908 48.0277L81.9621 48.1563C82.2088 48.403 82.4978 48.5955 82.8283 48.7338L82.8985 48.566ZM82.0918 48.0287C81.8701 47.7998 81.694 47.5237 81.5641 47.1989L81.3952 47.2665C81.5331 47.6113 81.7216 47.908 81.9611 48.1552L82.0918 48.0287ZM81.5641 47.1989C81.4351 46.8764 81.3697 46.5125 81.3697 46.1057H81.1878C81.1878 46.5321 81.2564 46.9194 81.3952 47.2665L81.5641 47.1989ZM81.3697 46.1057C81.3697 45.7136 81.4314 45.3564 81.5536 45.0331L81.3834 44.9688C81.2526 45.315 81.1878 45.6943 81.1878 46.1057H81.3697ZM81.5532 45.0341C81.6832 44.7019 81.8593 44.4223 82.0806 44.1938L81.95 44.0672C81.7101 44.3148 81.5216 44.6156 81.3838 44.9678L81.5532 45.0341ZM82.0806 44.1938C82.31 43.9573 82.5786 43.7745 82.8873 43.6453L82.8171 43.4775C82.486 43.6161 82.1967 43.8127 81.95 44.0672L82.0806 44.1938ZM82.889 43.6446C83.1963 43.5088 83.5333 43.4403 83.9012 43.4403V43.2584C83.5102 43.2584 83.1479 43.3313 82.8155 43.4782L82.889 43.6446ZM83.9012 43.4403C84.262 43.4403 84.5959 43.5052 84.9038 43.6341L84.9741 43.4663C84.6423 43.3275 84.2843 43.2584 83.9012 43.2584V43.4403ZM84.9055 43.6348C85.2138 43.7567 85.4781 43.9319 85.6994 44.1603L85.83 44.0338C85.5901 43.7861 85.3038 43.5967 84.9724 43.4657L84.9055 43.6348ZM85.7014 44.1624C85.9292 44.383 86.1083 44.658 86.238 44.9894L86.4074 44.9231C86.2692 44.5701 86.0764 44.2723 85.828 44.0317L85.7014 44.1624ZM86.2382 44.9901C86.3673 45.3127 86.4326 45.673 86.4326 46.0722H86.6145C86.6145 45.653 86.5459 45.2694 86.4071 44.9225L86.2382 44.9901ZM85.7719 47.0077C85.8729 46.7358 85.9226 46.4347 85.9226 46.1057H85.7407C85.7407 46.4164 85.6938 46.6956 85.6013 46.9444L85.7719 47.0077ZM85.9226 46.1057C85.9226 45.7765 85.8728 45.4721 85.7721 45.1932L85.6011 45.255C85.6938 45.5118 85.7407 45.795 85.7407 46.1057H85.9226ZM85.7721 45.1932C85.6719 44.9155 85.5321 44.6778 85.3518 44.4818L85.2179 44.605C85.3799 44.781 85.5079 44.9971 85.6011 45.255L85.7721 45.1932ZM85.353 44.4831C85.1731 44.2798 84.9577 44.1231 84.7076 44.0137L84.6347 44.1804C84.8607 44.2792 85.0545 44.4202 85.2168 44.6037L85.353 44.4831ZM84.7076 44.0137C84.4568 43.904 84.1801 43.8499 83.8788 43.8499V44.0318C84.1579 44.0318 84.4094 44.0818 84.6347 44.1804L84.7076 44.0137ZM83.8788 43.8499C83.5847 43.8499 83.3118 43.9041 83.0613 44.0137L83.1342 44.1804C83.3598 44.0817 83.6076 44.0318 83.8788 44.0318V43.8499ZM83.0603 44.0141C82.8185 44.1233 82.6076 44.2756 82.4282 44.4707L82.5621 44.5938C82.7249 44.4169 82.9157 44.279 83.1351 44.1799L83.0603 44.0141ZM82.4268 44.4722C82.2546 44.6679 82.119 44.9051 82.019 45.182L82.1901 45.2438C82.2835 44.9852 82.4083 44.7686 82.5634 44.5923L82.4268 44.4722ZM82.0193 45.1813C81.9184 45.453 81.8685 45.7503 81.8685 46.0722H82.0504C82.0504 45.7692 82.0973 45.4937 82.1898 45.2446L82.0193 45.1813ZM81.8685 46.0722C81.8685 46.4085 81.9182 46.7167 82.019 46.9958L82.1901 46.934C82.0975 46.6775 82.0504 46.3905 82.0504 46.0722H81.8685ZM82.019 46.9958C82.1192 47.2733 82.2587 47.5142 82.4382 47.717L82.5744 47.5965C82.4117 47.4125 82.2833 47.1921 82.1901 46.934L82.019 46.9958ZM82.4394 47.7183C82.6192 47.9139 82.8343 48.0662 83.0836 48.1753L83.1565 48.0086C82.9296 47.9094 82.7355 47.7716 82.5732 47.5952L82.4394 47.7183ZM83.0845 48.1757C83.3419 48.2849 83.6182 48.3391 83.9123 48.3391V48.1572C83.6411 48.1572 83.3891 48.1073 83.1556 48.0082L83.0845 48.1757ZM83.9123 48.3391C84.2064 48.3391 84.4794 48.2849 84.7299 48.1753L84.657 48.0086C84.4314 48.1073 84.1836 48.1572 83.9123 48.1572V48.3391ZM84.7299 48.1753C84.9795 48.0661 85.1914 47.9133 85.3643 47.7168L85.2278 47.5967C85.0733 47.7722 84.8835 47.9095 84.657 48.0086L84.7299 48.1753ZM85.3642 47.717C85.5437 47.514 85.6797 47.2765 85.7726 47.0056L85.6006 46.9466C85.5149 47.1964 85.3906 47.4126 85.2279 47.5965L85.3642 47.717ZM94.1497 47.1881L94.065 47.1549L94.0646 47.1559L94.1497 47.1881ZM93.6029 48.0585L93.5376 47.9952L93.5366 47.9962L93.6029 48.0585ZM92.7771 48.6388L92.8122 48.7227L92.8139 48.7219L92.7771 48.6388ZM90.6904 48.6499L90.6553 48.7338L90.6569 48.7345L90.6904 48.6499ZM89.8535 48.092L89.7881 48.1553L89.7891 48.1563L89.8535 48.092ZM89.3067 47.2327L89.2222 47.2665L89.3067 47.2327ZM89.2955 45.0009L89.2108 44.9678L89.2104 44.9688L89.2955 45.0009ZM89.8423 44.1305L89.777 44.0672L89.777 44.0672L89.8423 44.1305ZM90.6792 43.5614L90.7143 43.6453L90.716 43.6446L90.6792 43.5614ZM92.766 43.5502L92.7308 43.6342L92.7325 43.6348L92.766 43.5502ZM93.5917 44.097L93.5264 44.1603L93.5284 44.1624L93.5917 44.097ZM94.1497 44.9563L94.065 44.9894L94.0652 44.9901L94.1497 44.9563ZM93.5136 46.9761L93.4283 46.9444L93.4276 46.9466L93.5136 46.9761ZM93.5136 45.2241L93.4281 45.255L93.5136 45.2241ZM93.1119 44.5434L93.0438 44.6037L93.045 44.605L93.1119 44.5434ZM92.4981 44.097L92.5346 44.0137L92.4981 44.097ZM90.9247 44.097L90.8883 44.0137L90.8873 44.0141L90.9247 44.097ZM90.3221 44.5322L90.2552 44.4706L90.2539 44.4722L90.3221 44.5322ZM89.9316 45.2129L90.0168 45.2446L90.0171 45.2438L89.9316 45.2129ZM89.9316 46.9649L90.0171 46.934L89.9316 46.9649ZM90.3333 47.6568L90.2652 47.717L90.2664 47.7183L90.3333 47.6568ZM90.947 48.092L90.9106 48.1753L90.9115 48.1757L90.947 48.092ZM92.5205 48.092L92.484 48.0086L92.5205 48.092ZM93.123 47.6568L93.0549 47.5965L93.0548 47.5967L93.123 47.6568ZM94.2596 46.0722C94.2596 46.4636 94.1944 46.8242 94.065 47.1549L94.2344 47.2212C94.3728 46.8675 94.4415 46.4842 94.4415 46.0722H94.2596ZM94.0646 47.1559C93.9423 47.4796 93.7666 47.759 93.5376 47.9952L93.6682 48.1218C93.9153 47.867 94.1041 47.5661 94.2348 47.2202L94.0646 47.1559ZM93.5366 47.9962C93.3146 48.2325 93.0495 48.419 92.7404 48.5556L92.8139 48.7219C93.1445 48.5759 93.4299 48.3755 93.6692 48.1208L93.5366 47.9962ZM92.742 48.5549C92.4342 48.6837 92.0967 48.7487 91.7282 48.7487V48.9306C92.1185 48.9306 92.4802 48.8616 92.8122 48.7227L92.742 48.5549ZM91.7282 48.7487C91.3667 48.7487 91.0322 48.6873 90.7238 48.5653L90.6569 48.7345C90.9883 48.8655 91.3457 48.9306 91.7282 48.9306V48.7487ZM90.7255 48.566C90.4162 48.4365 90.1472 48.2571 89.9178 48.0277L89.7891 48.1563C90.0358 48.403 90.3248 48.5955 90.6553 48.7338L90.7255 48.566ZM89.9188 48.0287C89.6971 47.7998 89.521 47.5237 89.3911 47.1989L89.2222 47.2665C89.3601 47.6113 89.5486 47.908 89.7881 48.1552L89.9188 48.0287ZM89.3911 47.1989C89.2621 46.8764 89.1967 46.5125 89.1967 46.1057H89.0148C89.0148 46.5321 89.0834 46.9194 89.2222 47.2665L89.3911 47.1989ZM89.1967 46.1057C89.1967 45.7136 89.2584 45.3564 89.3806 45.0331L89.2104 44.9688C89.0796 45.315 89.0148 45.6943 89.0148 46.1057H89.1967ZM89.3802 45.0341C89.5102 44.7019 89.6863 44.4223 89.9076 44.1938L89.777 44.0672C89.5371 44.3148 89.3486 44.6156 89.2108 44.9678L89.3802 45.0341ZM89.9076 44.1938C90.137 43.9573 90.4056 43.7745 90.7143 43.6453L90.6441 43.4775C90.313 43.6161 90.0237 43.8127 89.777 44.0672L89.9076 44.1938ZM90.716 43.6446C91.0233 43.5088 91.3603 43.4403 91.7282 43.4403V43.2584C91.3372 43.2584 90.9749 43.3313 90.6425 43.4782L90.716 43.6446ZM91.7282 43.4403C92.089 43.4403 92.4229 43.5052 92.7308 43.6341L92.8011 43.4663C92.4693 43.3275 92.1113 43.2584 91.7282 43.2584V43.4403ZM92.7325 43.6348C93.0409 43.7567 93.3051 43.9319 93.5264 44.1603L93.657 44.0338C93.4171 43.7861 93.1308 43.5967 92.7994 43.4657L92.7325 43.6348ZM93.5284 44.1624C93.7562 44.383 93.9353 44.658 94.065 44.9894L94.2344 44.9231C94.0962 44.5701 93.9034 44.2723 93.655 44.0317L93.5284 44.1624ZM94.0652 44.9901C94.1943 45.3127 94.2596 45.673 94.2596 46.0722H94.4415C94.4415 45.653 94.3729 45.2694 94.2341 44.9225L94.0652 44.9901ZM93.5989 47.0077C93.6999 46.7358 93.7496 46.4347 93.7496 46.1057H93.5677C93.5677 46.4164 93.5208 46.6956 93.4284 46.9444L93.5989 47.0077ZM93.7496 46.1057C93.7496 45.7765 93.6999 45.4721 93.5992 45.1932L93.4281 45.255C93.5208 45.5118 93.5677 45.795 93.5677 46.1057H93.7496ZM93.5992 45.1932C93.4989 44.9155 93.3591 44.6778 93.1788 44.4818L93.045 44.605C93.2069 44.781 93.3349 44.9971 93.4281 45.255L93.5992 45.1932ZM93.18 44.4831C93.0001 44.2798 92.7847 44.1231 92.5346 44.0137L92.4617 44.1804C92.6877 44.2792 92.8815 44.4202 93.0438 44.6037L93.18 44.4831ZM92.5346 44.0137C92.2838 43.904 92.0071 43.8499 91.7059 43.8499V44.0318C91.9849 44.0318 92.2364 44.0818 92.4617 44.1804L92.5346 44.0137ZM91.7059 43.8499C91.4117 43.8499 91.1388 43.9041 90.8883 44.0137L90.9612 44.1804C91.1868 44.0817 91.4346 44.0318 91.7059 44.0318V43.8499ZM90.8873 44.0141C90.6455 44.1233 90.4346 44.2756 90.2552 44.4707L90.3891 44.5938C90.5519 44.4169 90.7427 44.279 90.9622 44.1799L90.8873 44.0141ZM90.2539 44.4722C90.0816 44.6679 89.946 44.9051 89.846 45.182L90.0171 45.2438C90.1105 44.9852 90.2353 44.7686 90.3904 44.5923L90.2539 44.4722ZM89.8463 45.1813C89.7454 45.453 89.6955 45.7503 89.6955 46.0722H89.8774C89.8774 45.7692 89.9243 45.4937 90.0168 45.2446L89.8463 45.1813ZM89.6955 46.0722C89.6955 46.4085 89.7452 46.7167 89.846 46.9958L90.0171 46.934C89.9245 46.6775 89.8774 46.3905 89.8774 46.0722H89.6955ZM89.846 46.9958C89.9462 47.2733 90.0857 47.5142 90.2652 47.717L90.4014 47.5965C90.2387 47.4125 90.1103 47.1921 90.0171 46.934L89.846 46.9958ZM90.2664 47.7183C90.4462 47.9139 90.6613 48.0662 90.9106 48.1753L90.9835 48.0086C90.7567 47.9094 90.5625 47.7716 90.4002 47.5952L90.2664 47.7183ZM90.9115 48.1757C91.1689 48.2849 91.4452 48.3391 91.7393 48.3391V48.1572C91.4681 48.1572 91.2162 48.1073 90.9826 48.0082L90.9115 48.1757ZM91.7393 48.3391C92.0335 48.3391 92.3064 48.2849 92.5569 48.1753L92.484 48.0086C92.2584 48.1073 92.0106 48.1572 91.7393 48.1572V48.3391ZM92.5569 48.1753C92.8065 48.0661 93.0184 47.9133 93.1913 47.7168L93.0548 47.5967C92.9003 47.7722 92.7105 47.9095 92.484 48.0086L92.5569 48.1753ZM93.1912 47.717C93.3707 47.514 93.5067 47.2765 93.5996 47.0056L93.4276 46.9466C93.3419 47.1964 93.2176 47.4126 93.0549 47.5965L93.1912 47.717ZM100.816 48.0139L100.753 47.9481L100.753 47.9486L100.816 48.0139ZM97.2229 48.728H97.132V48.819H97.2229V48.728ZM97.2229 43.461V43.37H97.132V43.461H97.2229ZM99.9346 43.6507L99.9036 43.7362L99.9053 43.7368L99.9346 43.6507ZM100.816 44.1751L100.879 44.1098L100.816 44.1751ZM101.363 45.0009L101.278 45.0344L101.279 45.036L101.363 45.0009ZM100.303 44.5992L100.241 44.6661L100.303 44.5992ZM97.9036 44.0747V43.9838H97.8127V44.0747H97.9036ZM97.9036 48.1143H97.8127V48.2052H97.9036V48.1143ZM99.5998 47.9915L99.6271 48.0783L99.5998 47.9915ZM100.269 47.6233L100.329 47.6916L100.33 47.6914L100.269 47.6233ZM100.716 46.9872L100.8 47.0218L100.716 46.9872ZM101.473 46.061C101.473 46.8673 101.23 47.4925 100.753 47.9481L100.879 48.0796C101.399 47.583 101.655 46.9063 101.655 46.061H101.473ZM100.753 47.9486C100.284 48.4033 99.6067 48.6371 98.7071 48.6371V48.819C99.6376 48.819 100.366 48.5767 100.879 48.0791L100.753 47.9486ZM98.7071 48.6371H97.2229V48.819H98.7071V48.6371ZM97.3139 48.728V43.461H97.132V48.728H97.3139ZM97.2229 43.5519H98.7629V43.37H97.2229V43.5519ZM98.7629 43.5519C99.1855 43.5519 99.5654 43.6138 99.9036 43.7362L99.9655 43.5651C99.6045 43.4346 99.2033 43.37 98.7629 43.37V43.5519ZM99.9053 43.7368C100.244 43.852 100.526 44.0202 100.753 44.2405L100.879 44.1098C100.631 43.8688 100.325 43.6874 99.9639 43.5646L99.9053 43.7368ZM100.753 44.2405C100.981 44.4618 101.156 44.726 101.278 45.0344L101.448 44.9675C101.316 44.636 101.127 44.3498 100.879 44.1098L100.753 44.2405ZM101.279 45.036C101.408 45.3436 101.473 45.6848 101.473 46.061H101.655C101.655 45.6635 101.586 45.298 101.447 44.9658L101.279 45.036ZM100.963 46.1057C100.963 45.4329 100.767 44.9036 100.364 44.5323L100.241 44.6661C100.597 44.9941 100.781 45.4691 100.781 46.1057H100.963ZM100.364 44.5323C99.9634 44.1627 99.4067 43.9838 98.7071 43.9838V44.1657C99.3763 44.1657 99.8835 44.3364 100.241 44.6661L100.364 44.5323ZM98.7071 43.9838H97.9036V44.1657H98.7071V43.9838ZM97.8127 44.0747V48.1143H97.9946V44.0747H97.8127ZM97.9036 48.2052H98.7294V48.0233H97.9036V48.2052ZM98.7294 48.2052C99.057 48.2052 99.3565 48.1633 99.6271 48.0783L99.5725 47.9048C99.3224 47.9834 99.0416 48.0233 98.7294 48.0233V48.2052ZM99.6271 48.0783C99.8983 47.993 100.133 47.8644 100.329 47.6916L100.209 47.555C100.034 47.7095 99.8221 47.8264 99.5725 47.9048L99.6271 48.0783ZM100.33 47.6914C100.534 47.5106 100.691 47.2868 100.8 47.0218L100.632 46.9526C100.532 47.1935 100.392 47.3938 100.209 47.5552L100.33 47.6914ZM100.8 47.0218C100.909 46.7558 100.963 46.4497 100.963 46.1057H100.781C100.781 46.4311 100.73 46.7128 100.632 46.9526L100.8 47.0218ZM109.502 44.0747V43.9838H109.412V44.0747H109.502ZM109.502 48.728V48.819H109.593V48.728H109.502ZM108.822 48.728H108.731V48.819H108.822V48.728ZM108.822 44.0747H108.913V43.9838H108.822V44.0747ZM106.992 44.0747H106.901V44.1657H106.992V44.0747ZM106.992 43.461V43.37H106.901V43.461H106.992ZM111.333 43.461H111.424V43.37H111.333V43.461ZM111.333 44.0747V44.1657H111.424V44.0747H111.333ZM109.412 44.0747V48.728H109.593V44.0747H109.412ZM109.502 48.6371H108.822V48.819H109.502V48.6371ZM108.913 48.728V44.0747H108.731V48.728H108.913ZM108.822 43.9838H106.992V44.1657H108.822V43.9838ZM107.083 44.0747V43.461H106.901V44.0747H107.083ZM106.992 43.5519H111.333V43.37H106.992V43.5519ZM111.242 43.461V44.0747H111.424V43.461H111.242ZM111.333 43.9838H109.502V44.1657H111.333V43.9838ZM114.013 48.728H113.922V48.819H114.013V48.728ZM114.013 43.461V43.37H113.922V43.461H114.013ZM114.694 43.461H114.785V43.37H114.694V43.461ZM114.694 48.728V48.819H114.785V48.728H114.694ZM114.104 48.728V43.461H113.922V48.728H114.104ZM114.013 43.5519H114.694V43.37H114.013V43.5519ZM114.603 43.461V48.728H114.785V43.461H114.603ZM114.694 48.6371H114.013V48.819H114.694V48.6371ZM122.516 48.728L122.425 48.7299L122.427 48.819H122.516V48.728ZM122.426 44.3425L122.517 44.3407L122.341 44.3112L122.426 44.3425ZM120.819 48.728V48.819H120.883L120.905 48.7593L120.819 48.728ZM120.094 48.728L120.009 48.7596L120.031 48.819H120.094V48.728ZM118.465 44.3314L118.55 44.2998L118.374 44.3295L118.465 44.3314ZM118.376 48.728V48.819H118.465L118.467 48.7299L118.376 48.728ZM117.706 48.728L117.615 48.7251L117.612 48.819H117.706V48.728ZM117.873 43.461V43.37H117.785L117.783 43.4581L117.873 43.461ZM118.811 43.461L118.896 43.4296L118.874 43.37H118.811V43.461ZM120.474 47.9804L120.388 48.0118L120.474 48.2461L120.559 48.0112L120.474 47.9804ZM122.103 43.461V43.37H122.039L122.017 43.4301L122.103 43.461ZM123.029 43.461L123.12 43.4581L123.117 43.37H123.029V43.461ZM123.196 48.728V48.819H123.29L123.287 48.7251L123.196 48.728ZM122.607 48.7262L122.517 44.3407L122.335 44.3444L122.425 48.7299L122.607 48.7262ZM122.341 44.3112L120.734 48.6967L120.905 48.7593L122.512 44.3738L122.341 44.3112ZM120.819 48.6371H120.094V48.819H120.819V48.6371ZM120.179 48.6964L118.55 44.2998L118.38 44.363L120.009 48.7596L120.179 48.6964ZM118.374 44.3295L118.285 48.7262L118.467 48.7299L118.556 44.3332L118.374 44.3295ZM118.376 48.6371H117.706V48.819H118.376V48.6371ZM117.797 48.7309L117.964 43.4639L117.783 43.4581L117.615 48.7251L117.797 48.7309ZM117.873 43.5519H118.811V43.37H117.873V43.5519ZM118.725 43.4924L120.388 48.0118L120.559 47.949L118.896 43.4296L118.725 43.4924ZM120.559 48.0112L122.188 43.4918L122.017 43.4301L120.388 47.9495L120.559 48.0112ZM122.103 43.5519H123.029V43.37H122.103V43.5519ZM122.938 43.4639L123.105 48.7309L123.287 48.7251L123.12 43.4581L122.938 43.4639ZM123.196 48.6371H122.516V48.819H123.196V48.6371ZM126.202 48.728H126.111V48.819H126.202V48.728ZM126.202 43.461V43.37H126.111V43.461H126.202ZM129.493 43.461H129.584V43.37H129.493V43.461ZM129.493 44.0747V44.1657H129.584V44.0747H129.493ZM126.871 44.0747V43.9838H126.78V44.0747H126.871ZM126.871 45.782H126.78V45.873H126.871V45.782ZM129.058 45.782H129.149V45.6911H129.058V45.782ZM129.058 46.3958V46.4867H129.149V46.3958H129.058ZM126.871 46.3958V46.3048H126.78V46.3958H126.871ZM126.871 48.1143H126.78V48.2052H126.871V48.1143ZM129.493 48.1143H129.584V48.0233H129.493V48.1143ZM129.493 48.728V48.819H129.584V48.728H129.493ZM126.292 48.728V43.461H126.111V48.728H126.292ZM126.202 43.5519H129.493V43.37H126.202V43.5519ZM129.402 43.461V44.0747H129.584V43.461H129.402ZM129.493 43.9838H126.871V44.1657H129.493V43.9838ZM126.78 44.0747V45.782H126.962V44.0747H126.78ZM126.871 45.873H129.058V45.6911H126.871V45.873ZM128.967 45.782V46.3958H129.149V45.782H128.967ZM129.058 46.3048H126.871V46.4867H129.058V46.3048ZM126.78 46.3958V48.1143H126.962V46.3958H126.78ZM126.871 48.2052H129.493V48.0233H126.871V48.2052ZM129.402 48.1143V48.728H129.584V48.1143H129.402ZM129.493 48.6371H126.202V48.819H129.493V48.6371ZM137.3 48.728V48.819H137.367L137.387 48.7546L137.3 48.728ZM136.63 48.728L136.543 48.7527L136.561 48.819H136.63V48.728ZM135.146 43.461V43.37H135.026L135.058 43.4856L135.146 43.461ZM135.849 43.461L135.937 43.4377L135.919 43.37H135.849V43.461ZM136.998 47.8018L136.91 47.8251L136.994 48.1404L137.086 47.8274L136.998 47.8018ZM138.271 43.461V43.37H138.202L138.183 43.4354L138.271 43.461ZM139.063 43.461L139.15 43.435L139.131 43.37H139.063V43.461ZM140.357 47.8018L140.27 47.8278L140.364 48.1419L140.445 47.8245L140.357 47.8018ZM141.473 43.461V43.37H141.403L141.385 43.4383L141.473 43.461ZM142.154 43.461L142.241 43.4855L142.274 43.37H142.154V43.461ZM140.681 48.728V48.819H140.75L140.768 48.7525L140.681 48.728ZM139.989 48.728L139.902 48.754L139.921 48.819H139.989V48.728ZM138.661 44.2644L138.748 44.2385L138.662 43.9491L138.574 44.2379L138.661 44.2644ZM137.3 48.6371H136.63V48.819H137.3V48.6371ZM136.718 48.7034L135.234 43.4363L135.058 43.4856L136.543 48.7527L136.718 48.7034ZM135.146 43.5519H135.849V43.37H135.146V43.5519ZM135.761 43.4842L136.91 47.8251L137.086 47.7785L135.937 43.4377L135.761 43.4842ZM137.086 47.8274L138.358 43.4865L138.183 43.4354L136.911 47.7763L137.086 47.8274ZM138.271 43.5519H139.063V43.37H138.271V43.5519ZM138.976 43.487L140.27 47.8278L140.444 47.7758L139.15 43.435L138.976 43.487ZM140.445 47.8245L141.561 43.4836L141.385 43.4383L140.269 47.7792L140.445 47.8245ZM141.473 43.5519H142.154V43.37H141.473V43.5519ZM142.066 43.4365L140.593 48.7035L140.768 48.7525L142.241 43.4855L142.066 43.4365ZM140.681 48.6371H139.989V48.819H140.681V48.6371ZM140.076 48.7021L138.748 44.2385L138.574 44.2904L139.902 48.754L140.076 48.7021ZM138.574 44.2379L137.213 48.7015L137.387 48.7546L138.748 44.291L138.574 44.2379ZM144.997 48.728H144.906V48.819H144.997V48.728ZM144.997 43.461V43.37H144.906V43.461H144.997ZM145.678 43.461H145.769V43.37H145.678V43.461ZM145.678 48.728V48.819H145.769V48.728H145.678ZM145.088 48.728V43.461H144.906V48.728H145.088ZM144.997 43.5519H145.678V43.37H144.997V43.5519ZM145.587 43.461V48.728H145.769V43.461H145.587ZM145.678 48.6371H144.997V48.819H145.678V48.6371ZM150.866 44.0747V43.9838H150.775V44.0747H150.866ZM150.866 48.728V48.819H150.957V48.728H150.866ZM150.185 48.728H150.094V48.819H150.185V48.728ZM150.185 44.0747H150.276V43.9838H150.185V44.0747ZM148.355 44.0747H148.264V44.1657H148.355V44.0747ZM148.355 43.461V43.37H148.264V43.461H148.355ZM152.696 43.461H152.787V43.37H152.696V43.461ZM152.696 44.0747V44.1657H152.787V44.0747H152.696ZM150.775 44.0747V48.728H150.957V44.0747H150.775ZM150.866 48.6371H150.185V48.819H150.866V48.6371ZM150.276 48.728V44.0747H150.094V48.728H150.276ZM150.185 43.9838H148.355V44.1657H150.185V43.9838ZM148.446 44.0747V43.461H148.264V44.0747H148.446ZM148.355 43.5519H152.696V43.37H148.355V43.5519ZM152.605 43.461V44.0747H152.787V43.461H152.605ZM152.696 43.9838H150.866V44.1657H152.696V43.9838ZM158.947 48.728H158.856V48.819H158.947V48.728ZM158.947 46.3846H159.038V46.2937H158.947V46.3846ZM156.046 46.3846V46.2937H155.955V46.3846H156.046ZM156.046 48.728V48.819H156.137V48.728H156.046ZM155.365 48.728H155.274V48.819H155.365V48.728ZM155.365 43.461V43.37H155.274V43.461H155.365ZM156.046 43.461H156.137V43.37H156.046V43.461ZM156.046 45.7709H155.955V45.8618H156.046V45.7709ZM158.947 45.7709V45.8618H159.038V45.7709H158.947ZM158.947 43.461V43.37H158.856V43.461H158.947ZM159.628 43.461H159.719V43.37H159.628V43.461ZM159.628 48.728V48.819H159.719V48.728H159.628ZM159.038 48.728V46.3846H158.856V48.728H159.038ZM158.947 46.2937H156.046V46.4756H158.947V46.2937ZM155.955 46.3846V48.728H156.137V46.3846H155.955ZM156.046 48.6371H155.365V48.819H156.046V48.6371ZM155.456 48.728V43.461H155.274V48.728H155.456ZM155.365 43.5519H156.046V43.37H155.365V43.5519ZM155.955 43.461V45.7709H156.137V43.461H155.955ZM156.046 45.8618H158.947V45.6799H156.046V45.8618ZM159.038 45.7709V43.461H158.856V45.7709H159.038ZM158.947 43.5519H159.628V43.37H158.947V43.5519ZM159.537 43.461V48.728H159.719V43.461H159.537ZM159.628 48.6371H158.947V48.819H159.628V48.6371ZM165.843 43.461V43.37H165.752V43.461H165.843ZM169.057 43.461H169.148V43.37H169.057V43.461ZM169.057 44.0747V44.1657H169.148V44.0747H169.057ZM166.513 44.0747V43.9838H166.422V44.0747H166.513ZM166.513 45.8713H166.422V45.9623H166.513V45.8713ZM168.622 45.8713H168.713V45.7804H168.622V45.8713ZM168.622 46.4962V46.5872H168.713V46.4962H168.622ZM166.513 46.4962V46.4053H166.422V46.4962H166.513ZM166.513 48.728V48.819H166.604V48.728H166.513ZM165.843 48.728H165.752V48.819H165.843V48.728ZM165.843 43.5519H169.057V43.37H165.843V43.5519ZM168.966 43.461V44.0747H169.148V43.461H168.966ZM169.057 43.9838H166.513V44.1657H169.057V43.9838ZM166.422 44.0747V45.8713H166.604V44.0747H166.422ZM166.513 45.9623H168.622V45.7804H166.513V45.9623ZM168.531 45.8713V46.4962H168.713V45.8713H168.531ZM168.622 46.4053H166.513V46.5872H168.622V46.4053ZM166.422 46.4962V48.728H166.604V46.4962H166.422ZM166.513 48.6371H165.843V48.819H166.513V48.6371ZM165.934 48.728V43.461H165.752V48.728H165.934ZM172.52 48.728V48.819H172.611V48.728H172.52ZM171.839 48.728H171.748V48.819H171.839V48.728ZM171.839 43.461V43.37H171.748V43.461H171.839ZM174.964 43.8962L174.904 43.9649L174.905 43.9657L174.964 43.8962ZM175.165 46.0387L175.093 45.9821L175.093 45.9824L175.165 46.0387ZM174.406 46.5855L174.373 46.5005L174.27 46.5399L174.329 46.6337L174.406 46.5855ZM175.745 48.728V48.819H175.909L175.822 48.6798L175.745 48.728ZM174.964 48.728L174.886 48.7758L174.913 48.819H174.964V48.728ZM173.736 46.7417L173.814 46.6939L173.785 46.6479L173.731 46.6509L173.736 46.7417ZM172.52 46.8087L172.515 46.7179L172.429 46.7226V46.8087H172.52ZM173.457 46.1949L173.456 46.104L173.455 46.104L173.457 46.1949ZM174.439 45.9048L174.498 45.9747L174.498 45.9745L174.439 45.9048ZM174.451 44.3314L174.395 44.4036L174.397 44.4047L174.451 44.3314ZM172.509 44.0747V43.9838H172.418V44.0747H172.509ZM172.509 46.2172H172.418V46.3104L172.511 46.3082L172.509 46.2172ZM172.52 48.6371H171.839V48.819H172.52V48.6371ZM171.93 48.728V43.461H171.748V48.728H171.93ZM171.839 43.5519H173.457V43.37H171.839V43.5519ZM173.457 43.5519C174.116 43.5519 174.593 43.6949 174.904 43.9649L175.023 43.8274C174.665 43.5172 174.138 43.37 173.457 43.37V43.5519ZM174.905 43.9657C175.216 44.2286 175.375 44.5921 175.375 45.0679H175.557C175.557 44.5468 175.381 44.1292 175.022 43.8267L174.905 43.9657ZM175.375 45.0679C175.375 45.4463 175.279 45.7486 175.093 45.9821L175.236 46.0953C175.452 45.8229 175.557 45.478 175.557 45.0679H175.375ZM175.093 45.9824C174.911 46.2141 174.672 46.3869 174.373 46.5005L174.438 46.6705C174.765 46.546 175.032 46.3543 175.236 46.095L175.093 45.9824ZM174.329 46.6337L175.668 48.7762L175.822 48.6798L174.483 46.5373L174.329 46.6337ZM175.745 48.6371H174.964V48.819H175.745V48.6371ZM175.041 48.6802L173.814 46.6939L173.659 46.7895L174.886 48.7758L175.041 48.6802ZM173.731 46.6509L172.515 46.7179L172.525 46.8995L173.741 46.8325L173.731 46.6509ZM172.429 46.8087V48.728H172.611V46.8087H172.429ZM173.459 46.2859C173.901 46.2782 174.252 46.179 174.498 45.9747L174.381 45.8349C174.18 46.0025 173.876 46.0967 173.456 46.104L173.459 46.2859ZM174.498 45.9745C174.751 45.7617 174.876 45.4708 174.876 45.1125H174.694C174.694 45.4238 174.588 45.661 174.381 45.8351L174.498 45.9745ZM174.876 45.1125C174.876 44.7357 174.757 44.4437 174.504 44.258L174.397 44.4047C174.59 44.5464 174.694 44.7751 174.694 45.1125H174.876ZM174.506 44.2592C174.259 44.07 173.885 43.9838 173.402 43.9838V44.1657C173.87 44.1657 174.196 44.2505 174.395 44.4036L174.506 44.2592ZM173.402 43.9838H172.509V44.1657H173.402V43.9838ZM172.418 44.0747V46.2172H172.6V44.0747H172.418ZM172.511 46.3082L173.459 46.2859L173.455 46.104L172.507 46.1263L172.511 46.3082ZM178.533 48.728H178.442V48.819H178.533V48.728ZM178.533 43.461V43.37H178.442V43.461H178.533ZM179.214 43.461H179.305V43.37H179.214V43.461ZM179.214 48.728V48.819H179.305V48.728H179.214ZM178.624 48.728V43.461H178.442V48.728H178.624ZM178.533 43.5519H179.214V43.37H178.533V43.5519ZM179.123 43.461V48.728H179.305V43.461H179.123ZM179.214 48.6371H178.533V48.819H179.214V48.6371ZM182.382 48.728H182.291V48.819H182.382V48.728ZM182.382 43.461V43.37H182.291V43.461H182.382ZM185.674 43.461H185.765V43.37H185.674V43.461ZM185.674 44.0747V44.1657H185.765V44.0747H185.674ZM183.052 44.0747V43.9838H182.961V44.0747H183.052ZM183.052 45.782H182.961V45.873H183.052V45.782ZM185.239 45.782H185.33V45.6911H185.239V45.782ZM185.239 46.3958V46.4867H185.33V46.3958H185.239ZM183.052 46.3958V46.3048H182.961V46.3958H183.052ZM183.052 48.1143H182.961V48.2052H183.052V48.1143ZM185.674 48.1143H185.765V48.0233H185.674V48.1143ZM185.674 48.728V48.819H185.765V48.728H185.674ZM182.473 48.728V43.461H182.291V48.728H182.473ZM182.382 43.5519H185.674V43.37H182.382V43.5519ZM185.583 43.461V44.0747H185.765V43.461H185.583ZM185.674 43.9838H183.052V44.1657H185.674V43.9838ZM182.961 44.0747V45.782H183.143V44.0747H182.961ZM183.052 45.873H185.239V45.6911H183.052V45.873ZM185.148 45.782V46.3958H185.33V45.782H185.148ZM185.239 46.3048H183.052V46.4867H185.239V46.3048ZM182.961 46.3958V48.1143H183.143V46.3958H182.961ZM183.052 48.2052H185.674V48.0233H183.052V48.2052ZM185.583 48.1143V48.728H185.765V48.1143H185.583ZM185.674 48.6371H182.382V48.819H185.674V48.6371ZM192.201 43.461V43.37H192.11L192.11 43.4612L192.201 43.461ZM192.848 43.461H192.939V43.37H192.848V43.461ZM192.848 48.7838V48.8748H192.939V48.7838H192.848ZM192.112 48.7838L192.036 48.8341L192.063 48.8748H192.112V48.7838ZM189.233 44.443L189.308 44.3927L189.141 44.1401L189.142 44.4432L189.233 44.443ZM189.244 48.728V48.819H189.335L189.335 48.7278L189.244 48.728ZM188.597 48.728H188.506V48.819H188.597V48.728ZM188.597 43.461V43.37H188.506V43.461H188.597ZM189.355 43.461L189.431 43.4106L189.404 43.37H189.355V43.461ZM192.212 47.7572L192.136 47.8076L192.304 48.0594L192.303 47.757L192.212 47.7572ZM192.201 43.5519H192.848V43.37H192.201V43.5519ZM192.757 43.461V48.7838H192.939V43.461H192.757ZM192.848 48.6929H192.112V48.8748H192.848V48.6929ZM192.187 48.7336L189.308 44.3927L189.157 44.4932L192.036 48.8341L192.187 48.7336ZM189.142 44.4432L189.153 48.7283L189.335 48.7278L189.324 44.4427L189.142 44.4432ZM189.244 48.6371H188.597V48.819H189.244V48.6371ZM188.688 48.728V43.461H188.506V48.728H188.688ZM188.597 43.5519H189.355V43.37H188.597V43.5519ZM189.28 43.5113L192.136 47.8076L192.288 47.7068L189.431 43.4106L189.28 43.5113ZM192.303 47.757L192.292 43.4607L192.11 43.4612L192.121 47.7574L192.303 47.757ZM199.592 48.0139L199.529 47.9481L199.528 47.9486L199.592 48.0139ZM195.999 48.728H195.908V48.819H195.999V48.728ZM195.999 43.461V43.37H195.908V43.461H195.999ZM198.71 43.6507L198.679 43.7362L198.681 43.7368L198.71 43.6507ZM199.592 44.1751L199.655 44.1098L199.592 44.1751ZM200.139 45.0009L200.054 45.0344L200.055 45.036L200.139 45.0009ZM199.078 44.5992L199.017 44.6661L199.078 44.5992ZM196.679 44.0747V43.9838H196.588V44.0747H196.679ZM196.679 48.1143H196.588V48.2052H196.679V48.1143ZM198.375 47.9915L198.403 48.0783L198.375 47.9915ZM199.045 47.6233L199.105 47.6916L199.105 47.6914L199.045 47.6233ZM199.491 46.9872L199.575 47.0218L199.491 46.9872ZM200.248 46.061C200.248 46.8673 200.006 47.4925 199.529 47.9481L199.655 48.0796C200.174 47.583 200.43 46.9063 200.43 46.061H200.248ZM199.528 47.9486C199.06 48.4033 198.382 48.6371 197.483 48.6371V48.819C198.413 48.819 199.142 48.5767 199.655 48.0791L199.528 47.9486ZM197.483 48.6371H195.999V48.819H197.483V48.6371ZM196.09 48.728V43.461H195.908V48.728H196.09ZM195.999 43.5519H197.539V43.37H195.999V43.5519ZM197.539 43.5519C197.961 43.5519 198.341 43.6138 198.679 43.7362L198.741 43.5651C198.38 43.4346 197.979 43.37 197.539 43.37V43.5519ZM198.681 43.7368C199.019 43.852 199.301 44.0202 199.528 44.2405L199.655 44.1098C199.406 43.8688 199.1 43.6874 198.74 43.5646L198.681 43.7368ZM199.528 44.2405C199.757 44.4618 199.932 44.726 200.054 45.0344L200.223 44.9675C200.092 44.636 199.903 44.3498 199.655 44.1098L199.528 44.2405ZM200.055 45.036C200.183 45.3436 200.248 45.6848 200.248 46.061H200.43C200.43 45.6635 200.362 45.298 200.222 44.9658L200.055 45.036ZM199.739 46.1057C199.739 45.4329 199.543 44.9036 199.14 44.5323L199.017 44.6661C199.373 44.9941 199.557 45.4691 199.557 46.1057H199.739ZM199.14 44.5323C198.739 44.1627 198.182 43.9838 197.483 43.9838V44.1657C198.152 44.1657 198.659 44.3364 199.017 44.6661L199.14 44.5323ZM197.483 43.9838H196.679V44.1657H197.483V43.9838ZM196.588 44.0747V48.1143H196.77V44.0747H196.588ZM196.679 48.2052H197.505V48.0233H196.679V48.2052ZM197.505 48.2052C197.833 48.2052 198.132 48.1633 198.403 48.0783L198.348 47.9048C198.098 47.9834 197.817 48.0233 197.505 48.0233V48.2052ZM198.403 48.0783C198.674 47.993 198.909 47.8644 199.105 47.6916L198.985 47.555C198.809 47.7095 198.598 47.8264 198.348 47.9048L198.403 48.0783ZM199.105 47.6914C199.31 47.5106 199.466 47.2868 199.575 47.0218L199.407 46.9526C199.308 47.1935 199.167 47.3938 198.985 47.5552L199.105 47.6914ZM199.575 47.0218C199.685 46.7558 199.739 46.4497 199.739 46.1057H199.557C199.557 46.4311 199.506 46.7128 199.407 46.9526L199.575 47.0218ZM205.447 47.9915L205.391 47.9203L205.39 47.9213L205.447 47.9915ZM205.447 46.7194L205.398 46.7955L205.399 46.7967L205.447 46.7194ZM204.499 46.3288L204.524 46.2414L204.523 46.2413L204.499 46.3288ZM203.941 46.1391L203.907 46.2236L203.941 46.1391ZM203.439 45.8602L203.382 45.9312L203.384 45.9329L203.439 45.8602ZM203.071 45.4361L202.99 45.4782L202.992 45.4824L203.071 45.4361ZM203.416 43.7511L203.475 43.8208L203.416 43.7511ZM205.57 43.4721L205.544 43.5594L205.547 43.5601L205.57 43.4721ZM206.34 43.7957L206.426 43.8259L206.45 43.7566L206.388 43.7182L206.34 43.7957ZM206.128 44.3983L206.078 44.4744L206.175 44.538L206.214 44.4285L206.128 44.3983ZM205.425 44.0747L205.397 44.1613L205.399 44.162L205.425 44.0747ZM203.874 44.1975L203.811 44.1317L203.874 44.1975ZM203.952 45.3692L203.907 45.4483L203.908 45.4489L203.952 45.3692ZM204.901 45.7374L204.928 45.6508L204.926 45.6502L204.901 45.7374ZM205.459 45.9383L205.425 46.0227L205.459 45.9383ZM205.95 46.2284L205.891 46.298L205.893 46.2994L205.95 46.2284ZM206.307 46.6636L206.387 46.6215L206.307 46.6636ZM206.307 47.9134L206.389 47.9528L206.389 47.9515L206.307 47.9134ZM205.927 48.4044L205.985 48.4748L205.987 48.4732L205.927 48.4044ZM205.336 48.728L205.365 48.8143L205.366 48.8137L205.336 48.728ZM203.673 48.7169L203.648 48.8042L203.65 48.8047L203.673 48.7169ZM202.847 48.3598L202.761 48.331L202.738 48.3999L202.8 48.4376L202.847 48.3598ZM203.048 47.7572L203.096 47.6801L202.998 47.6188L202.962 47.7284L203.048 47.7572ZM203.774 48.1143L203.742 48.1998L203.743 48.2L203.774 48.1143ZM204.61 48.3391C204.975 48.3391 205.276 48.2498 205.505 48.0618L205.39 47.9213C205.202 48.0755 204.945 48.1572 204.61 48.1572V48.3391ZM205.504 48.0628C205.74 47.8756 205.862 47.6342 205.862 47.3443H205.68C205.68 47.5751 205.586 47.7653 205.391 47.9203L205.504 48.0628ZM205.862 47.3443C205.862 47.0344 205.741 46.7948 205.495 46.6421L205.399 46.7967C205.585 46.9119 205.68 47.0888 205.68 47.3443H205.862ZM205.497 46.6433C205.27 46.4947 204.944 46.3615 204.524 46.2414L204.474 46.4163C204.887 46.5343 205.193 46.6614 205.398 46.7955L205.497 46.6433ZM204.523 46.2413C204.341 46.1901 204.158 46.1279 203.975 46.0547L203.907 46.2236C204.096 46.2991 204.285 46.3634 204.474 46.4164L204.523 46.2413ZM203.975 46.0547C203.796 45.983 203.635 45.8938 203.493 45.7874L203.384 45.9329C203.54 46.0497 203.714 46.1464 203.907 46.2236L203.975 46.0547ZM203.496 45.7891C203.355 45.677 203.24 45.544 203.149 45.3898L202.992 45.4824C203.095 45.6556 203.225 45.8053 203.382 45.9312L203.496 45.7891ZM203.151 45.394C203.07 45.239 203.028 45.0459 203.028 44.8112H202.846C202.846 45.0675 202.892 45.291 202.99 45.4782L203.151 45.394ZM203.028 44.8112C203.028 44.3976 203.177 44.0704 203.475 43.8208L203.358 43.6814C203.016 43.9675 202.846 44.347 202.846 44.8112H203.028ZM203.475 43.8208C203.775 43.5699 204.173 43.4403 204.677 43.4403V43.2584C204.141 43.2584 203.698 43.3967 203.358 43.6814L203.475 43.8208ZM204.677 43.4403C204.99 43.4403 205.278 43.4802 205.544 43.5593L205.596 43.385C205.311 43.3004 205.005 43.2584 204.677 43.2584V43.4403ZM205.547 43.5601C205.822 43.6324 206.07 43.7369 206.293 43.8733L206.388 43.7182C206.149 43.5718 205.884 43.4606 205.593 43.3842L205.547 43.5601ZM206.254 43.7656L206.042 44.3681L206.214 44.4285L206.426 43.8259L206.254 43.7656ZM206.178 44.3223C205.955 44.1759 205.712 44.0643 205.451 43.9875L205.399 44.162C205.644 44.2339 205.87 44.3381 206.078 44.4744L206.178 44.3223ZM205.453 43.9882C205.192 43.9038 204.937 43.861 204.689 43.861V44.0429C204.916 44.0429 205.152 44.082 205.397 44.1612L205.453 43.9882ZM204.689 43.861C204.306 43.861 204.007 43.9448 203.811 44.1317L203.937 44.2632C204.084 44.1228 204.327 44.0429 204.689 44.0429V43.861ZM203.811 44.1317C203.624 44.3107 203.526 44.5235 203.526 44.7666H203.708C203.708 44.5782 203.782 44.4115 203.937 44.2632L203.811 44.1317ZM203.526 44.7666C203.526 45.0717 203.653 45.3043 203.907 45.4483L203.997 45.29C203.805 45.1811 203.708 45.012 203.708 44.7666H203.526ZM203.908 45.4489C204.147 45.5798 204.47 45.7047 204.875 45.8246L204.926 45.6502C204.528 45.5321 204.218 45.4115 203.996 45.2894L203.908 45.4489ZM204.873 45.824C205.057 45.8829 205.241 45.9491 205.425 46.0227L205.492 45.8538C205.304 45.7787 205.116 45.711 204.928 45.6508L204.873 45.824ZM205.425 46.0227C205.602 46.0938 205.758 46.1857 205.891 46.298L206.008 46.1588C205.859 46.0331 205.687 45.9315 205.492 45.8538L205.425 46.0227ZM205.893 46.2994C206.032 46.4105 206.142 46.5456 206.226 46.7057L206.387 46.6215C206.292 46.4394 206.165 46.2844 206.006 46.1574L205.893 46.2994ZM206.226 46.7057C206.307 46.8607 206.35 47.0538 206.35 47.2885H206.531C206.531 47.0322 206.485 46.8087 206.387 46.6215L206.226 46.7057ZM206.35 47.2885C206.35 47.4992 206.308 47.6944 206.224 47.8753L206.389 47.9515C206.484 47.7456 206.531 47.5242 206.531 47.2885H206.35ZM206.225 47.8741C206.141 48.0482 206.022 48.202 205.868 48.3356L205.987 48.4732C206.159 48.3241 206.294 48.1506 206.389 47.9528L206.225 47.8741ZM205.87 48.334C205.715 48.4603 205.528 48.5634 205.305 48.6423L205.366 48.8137C205.605 48.7289 205.812 48.6163 205.985 48.4748L205.87 48.334ZM205.307 48.6417C205.094 48.7127 204.859 48.7487 204.599 48.7487V48.9306C204.876 48.9306 205.131 48.8922 205.365 48.8143L205.307 48.6417ZM204.599 48.7487C204.295 48.7487 203.994 48.7088 203.697 48.629L203.65 48.8047C203.962 48.8886 204.279 48.9306 204.599 48.9306V48.7487ZM203.699 48.6296C203.4 48.5423 203.133 48.4263 202.894 48.282L202.8 48.4376C203.053 48.5908 203.336 48.7129 203.648 48.8042L203.699 48.6296ZM202.934 48.3885L203.134 47.786L202.962 47.7284L202.761 48.331L202.934 48.3885ZM203 47.8343C203.243 47.9862 203.491 48.1082 203.742 48.1998L203.805 48.0288C203.566 47.9419 203.329 47.8257 203.096 47.6801L203 47.8343ZM203.743 48.2C204.007 48.2932 204.297 48.3391 204.61 48.3391V48.1572C204.314 48.1572 204.046 48.1139 203.804 48.0285L203.743 48.2Z" fill="#2A43AD"/>
<circle cx="140.546" cy="32.5902" r="2.2318" fill="black"/>
<path fill-rule="evenodd" clip-rule="evenodd" d="M36.5056 30.9187L35.4861 54.1215C35.4426 55.1094 36.4158 55.8252 37.346 55.4896L65.8821 45.1925C67.1772 44.7252 67.0771 42.8612 65.7393 42.5353L46.2703 37.7922C45.9703 37.7191 45.7181 37.5167 45.5818 37.2396L39.935 25.7596L36.5056 30.9187Z" fill="#FF333A"/>
<circle cx="51.0439" cy="31.6591" r="4.86365" transform="rotate(29.3253 51.0439 31.6591)" fill="#FF333A"/>
<path fill-rule="evenodd" clip-rule="evenodd" d="M30.5923 33.8823L22.8096 22.5323L16.9069 32.1369C16.7453 32.4 16.4752 32.5779 16.1696 32.6225L2.29238 34.6493C0.869085 34.8572 0.660669 36.8255 2.00887 37.3268L29.136 47.4142C30.0629 47.7589 31.043 47.0525 31.0091 46.0642L30.5923 33.8823Z" fill="#6097B2"/>
<circle cx="12.5352" cy="25.7112" r="4.86365" transform="rotate(-42.7928 12.5352 25.7112)" fill="#6097B2"/>
<path d="M48.7829 6.11232C50.0517 5.57757 51.2421 7.01546 50.4799 8.16211L33.6859 33.4267C33.1385 34.2503 31.9304 34.2546 31.377 33.4351L15.1806 9.44943C14.3756 8.25736 15.6902 6.77764 16.9688 7.43654L29.4353 13.8609C29.7098 14.0023 30.0329 14.0148 30.3175 13.8948L48.7829 6.11232Z" fill="#FF8B66"/>
<circle cx="30.4998" cy="6.12544" r="4.86365" transform="rotate(-7.22005 30.4998 6.12544)" fill="#FF8B66"/>
</svg>
